<svg xmlns="http://www.w3.org/2000/svg"  viewBox="0 0 64 64" width="64px" height="64px"><path fill="#7e8188" d="M10,11.25v42.5c0,2.347,1.949,4.25,4.353,4.25h28.294C45.051,58,47,56.097,47,53.75v-42.5	C47,8.903,45.051,7,42.647,7H14.353C11.949,7,10,8.903,10,11.25z"/><path fill="#acb7d0" d="M14,13v6c0,1.105,0.999,2,2.231,2h24.539C42.001,21,43,20.105,43,19v-6c0-1.105-0.999-2-2.231-2	H16.23C14.998,11,14,11.895,14,13z"/><circle cx="17.5" cy="28.5" r="3.5" fill="#e2e9f7"/><circle cx="28.5" cy="28.5" r="3.5" fill="#e2e9f7"/><circle cx="39.5" cy="28.5" r="3.5" fill="#efc88e"/><circle cx="17.5" cy="39.5" r="3.5" fill="#e2e9f7"/><circle cx="28.5" cy="39.5" r="3.5" fill="#e2e9f7"/><circle cx="39.5" cy="39.5" r="3.5" fill="#efc88e"/><circle cx="39.5" cy="50.5" r="3.5" fill="#efc88e"/><path fill="#e2e9f7" d="M28.5,47h-11c-1.933,0-3.5,1.567-3.5,3.5s1.567,3.5,3.5,3.5h11c1.933,0,3.5-1.567,3.5-3.5	S30.433,47,28.5,47z"/><path fill="#8d6c9f" d="M54,14h-2c-0.552,0-1-0.447-1-1s0.448-1,1-1h2c0.552,0,1,0.447,1,1S54.552,14,54,14z"/><path fill="#8d6c9f" d="M54,19h-2c-0.552,0-1-0.447-1-1s0.448-1,1-1h2c0.552,0,1,0.447,1,1S54.552,19,54,19z"/><path fill="#8d6c9f" d="M54,24h-2c-0.552,0-1-0.447-1-1s0.448-1,1-1h2c0.552,0,1,0.447,1,1S54.552,24,54,24z"/><path fill="#8d6c9f" d="M54,29h-2c-0.552,0-1-0.447-1-1s0.448-1,1-1h2c0.552,0,1,0.447,1,1S54.552,29,54,29z"/><path fill="#8d6c9f" d="M54,34h-2c-0.552,0-1-0.447-1-1s0.448-1,1-1h2c0.552,0,1,0.447,1,1S54.552,34,54,34z"/><path fill="#8d6c9f" d="M54,39h-2c-0.552,0-1-0.447-1-1s0.448-1,1-1h2c0.552,0,1,0.447,1,1S54.552,39,54,39z"/><path fill="#8d6c9f" d="M54,44h-2c-0.552,0-1-0.447-1-1s0.448-1,1-1h2c0.552,0,1,0.447,1,1S54.552,44,54,44z"/><path fill="#8d6c9f" d="M54,49h-2c-0.552,0-1-0.447-1-1s0.448-1,1-1h2c0.552,0,1,0.447,1,1S54.552,49,54,49z"/><path fill="#8d6c9f" d="M54,54h-2c-0.552,0-1-0.447-1-1s0.448-1,1-1h2c0.552,0,1,0.447,1,1S54.552,54,54,54z"/><g><path fill="#8d6c9f" d="M42.647,59H14.353C11.401,59,9,56.645,9,53.75v-42.5C9,8.355,11.401,6,14.353,6h28.294 C45.599,6,48,8.355,48,11.25v42.5C48,56.645,45.599,59,42.647,59z M14.353,8C12.504,8,11,9.458,11,11.25v42.5 c0,1.792,1.504,3.25,3.353,3.25h28.294C44.496,57,46,55.542,46,53.75v-42.5C46,9.458,44.496,8,42.647,8H14.353z"/><path fill="#8d6c9f" d="M40.77,22H16.23C14.449,22,13,20.654,13,19v-6c0-1.654,1.449-3,3.231-3H40.77 c1.781,0,3.23,1.346,3.23,3v6C44,20.654,42.551,22,40.77,22z M16.23,12C15.552,12,15,12.448,15,13v6c0,0.552,0.552,1,1.231,1H40.77 c0.679,0,1.23-0.448,1.23-1v-6c0-0.552-0.552-1-1.23-1H16.23z"/><path fill="#8d6c9f" d="M17.5,33c-2.481,0-4.5-2.019-4.5-4.5s2.019-4.5,4.5-4.5s4.5,2.019,4.5,4.5S19.981,33,17.5,33z M17.5,26c-1.378,0-2.5,1.121-2.5,2.5s1.122,2.5,2.5,2.5s2.5-1.121,2.5-2.5S18.878,26,17.5,26z"/><path fill="#8d6c9f" d="M28.5,33c-2.481,0-4.5-2.019-4.5-4.5s2.019-4.5,4.5-4.5s4.5,2.019,4.5,4.5S30.981,33,28.5,33z M28.5,26c-1.378,0-2.5,1.121-2.5,2.5s1.122,2.5,2.5,2.5s2.5-1.121,2.5-2.5S29.878,26,28.5,26z"/><path fill="#8d6c9f" d="M39.5,33c-2.481,0-4.5-2.019-4.5-4.5s2.019-4.5,4.5-4.5s4.5,2.019,4.5,4.5S41.981,33,39.5,33z M39.5,26c-1.378,0-2.5,1.121-2.5,2.5s1.122,2.5,2.5,2.5s2.5-1.121,2.5-2.5S40.878,26,39.5,26z"/><path fill="#8d6c9f" d="M17.5,44c-2.481,0-4.5-2.019-4.5-4.5s2.019-4.5,4.5-4.5s4.5,2.019,4.5,4.5S19.981,44,17.5,44z M17.5,37c-1.378,0-2.5,1.121-2.5,2.5s1.122,2.5,2.5,2.5s2.5-1.121,2.5-2.5S18.878,37,17.5,37z"/><path fill="#8d6c9f" d="M28.5,44c-2.481,0-4.5-2.019-4.5-4.5s2.019-4.5,4.5-4.5s4.5,2.019,4.5,4.5S30.981,44,28.5,44z M28.5,37c-1.378,0-2.5,1.121-2.5,2.5s1.122,2.5,2.5,2.5s2.5-1.121,2.5-2.5S29.878,37,28.5,37z"/><path fill="#8d6c9f" d="M39.5,44c-2.481,0-4.5-2.019-4.5-4.5s2.019-4.5,4.5-4.5s4.5,2.019,4.5,4.5S41.981,44,39.5,44z M39.5,37c-1.378,0-2.5,1.121-2.5,2.5s1.122,2.5,2.5,2.5s2.5-1.121,2.5-2.5S40.878,37,39.5,37z"/><path fill="#8d6c9f" d="M39.5,55c-2.481,0-4.5-2.019-4.5-4.5s2.019-4.5,4.5-4.5s4.5,2.019,4.5,4.5S41.981,55,39.5,55z M39.5,48c-1.378,0-2.5,1.121-2.5,2.5s1.122,2.5,2.5,2.5s2.5-1.121,2.5-2.5S40.878,48,39.5,48z"/><path fill="#8d6c9f" d="M28.5,55h-11c-2.481,0-4.5-2.019-4.5-4.5s2.019-4.5,4.5-4.5h11c2.481,0,4.5,2.019,4.5,4.5 S30.981,55,28.5,55z M17.5,48c-1.378,0-2.5,1.121-2.5,2.5s1.122,2.5,2.5,2.5h11c1.378,0,2.5-1.121,2.5-2.5S29.878,48,28.5,48H17.5z"/></g></svg>